<svg xmlns="http://www.w3.org/2000/svg" width="1125" height="643" stroke="none" stroke-linecap="round" stroke-linejoin="round" fill="#fff" fill-rule="evenodd"><path d="M.0603 585.3468h37.1109V423.5657l57.9594 141.0525c6.5693 16.9546 15.9959 23.2355 34.2552 23.2355 18.2667 0 27.1337-6.2877 33.9176-23.2355l57.6643-141.0525v161.7811h37.4047V423.5657c0-15.7012-5.7205-23.256-17.7077-27.3405-28.2646-9.4203-47.1067-1.2535-55.6646 19.7856l-56.8067 139.4818-54.8185-139.4818c-8.2733-21.0391-27.4103-29.2059-55.9509-19.7856C5.7129 400.3097.0098 407.8577.0098 423.5657L0 585.3468zm289.1993-131.6232h37.3972v88.9056c-.2761 5.0184 1.4269 16.3379 21.755 16.6373 10.558.3194 80.5122 0 81.0735 0V453.0911h37.3956v145.4521c0 35.809-40.3111 43.6559-59.0925 43.9758H290.1781v-27.3158h117.9082c23.982-2.8332 21.1263-16.0207 21.1263-20.4204v-10.6895H350.127c-36.8261-.3173-60.5243-18.2239-60.7982-38.6378V453.71zm802.1999-103.0471c-22.8276-.6324-40.5375 1.8859-55.381 8.8015-4.2803 1.9017-11.1377 1.9017-11.6973 7.8585 2.2851 2.5022 2.5589 6.5892 4.5586 10.057 3.4273 6.2857 9.4261 14.7561 14.8434 19.1489 6.0075 5.0322 11.9968 10.0571 18.2674 14.4568 11.1389 7.5343 23.696 11.934 34.5388 19.4752 6.2841 4.3996 12.5671 10.0528 18.8498 14.7697 3.1939 2.5159 5.1326 6.6051 9.1311 8.1669v-.9498c-1.9976-2.8174-2.5708-6.8977-4.5587-10.0528-2.8585-3.1347-5.7129-5.9704-8.5789-9.1051-8.2718-12.2535-18.5548-22.9409-29.685-31.7287-9.1398-6.9134-29.1118-16.3336-32.8249-27.9483l-.5598-.6367c6.2717-.6346 13.6876-3.1441 19.6955-5.0342 9.7118-2.8154 18.5548-2.1965 28.5309-5.0186 4.5797-1.2649 9.1402-2.8332 13.7125-4.3997v-2.8195c-5.1338-5.653-8.8451-13.1942-14.2701-18.5322-14.5558-13.8179-30.5517-27.3295-47.109-38.6378-8.8453-6.2831-20.2688-10.3744-29.6852-15.7013-3.4375-1.8901-9.1384-2.8353-11.1376-5.9704-5.1516-6.9018-7.9979-16.0206-11.7096-24.1942-8.2733-17.2789-16.2713-36.4389-23.401-54.6585-5.1412-12.2535-8.2855-24.5048-14.5563-35.8132-29.4085-53.4029-61.3884-85.7572-110.4929-117.4927-10.558-6.5961-23.1151-9.4361-36.4689-12.8859l-21.411-1.265c-4.5707-2.1964-9.1387-8.1669-13.1375-11-16.271-11.3084-58.237-35.8111-70.2341-3.45-7.7116 20.4204 11.4248 40.5213 17.9141 50.8914 4.8657 7.2281 11.1378 15.3949 14.5678 23.5617 1.9256 5.338 2.5664 10.9959 4.568 16.6532 4.5587 13.8178 8.845 29.2196 14.8416 42.1056 3.2014 6.5961 6.5579 13.5184 10.5569 19.482 2.2851 3.4478 6.284 5.0254 7.1387 10.6763-4.0065 6.2899-4.2803 15.7034-6.5654 23.5687-10.2755 35.5027-6.2763 79.4784 8.2795 105.5429 4.5723 7.8538 15.3551 25.1395 29.9823 18.5322 12.8441-5.653 9.9848-23.5575 13.689-39.2655.8669-3.7672.2934-6.2831 1.9978-8.7994v.6325l11.711 26.0713c8.8451 15.395 24.2677 31.4161 37.1097 42.1056 6.8442 5.6574 12.2709 15.4018 20.8301 18.8495v-.9518h-.5613c-1.714-2.8153-4.2849-4.0803-6.5699-6.2767-5.1397-5.6574-10.8427-12.5729-14.8417-18.8496-11.985-17.5913-22.5418-37.0734-31.9679-57.1743-4.5724-9.7376-8.5714-20.4203-12.2708-30.1579-1.7264-3.7741-1.7264-9.4318-4.5799-11.3084-4.2864 6.9019-10.557 12.886-13.7121 21.3654-5.4259 13.5048-5.9871 30.1537-7.9848 47.4325-1.1468.3173-.635 0-1.1468.6367-9.1264-2.509-12.2783-12.8859-15.6963-21.6716-8.5594-22.3105-9.9972-58.1195-2.571-83.8823 1.9901-6.5983 10.569-27.3316 7.1417-33.6147-1.726-5.9704-7.4159-9.4182-10.569-14.1373-3.7126-5.9704-7.6984-13.5048-10.2705-20.1008-6.8442-17.605-10.27-37.0734-17.6983-54.6696-3.4302-8.1668-9.4244-16.6489-14.2816-24.1832-5.4259-8.4862-11.4029-14.4567-15.6894-24.5048-1.428-3.4498-3.4256-9.1077-1.1405-12.8817.5596-2.5159 1.7139-3.4541 3.9869-4.0866 3.7114-3.4477 14.282.9451 17.9935 2.8153 10.5568 4.7191 19.4021 9.1119 28.2547 15.7034 3.9992 3.1393 8.2855 9.1098 13.4251 10.6873h6.0004c9.131 2.1964 19.402.6325 27.9575 3.4499 15.1292 5.3516 28.8356 13.1965 41.1201 21.6895 37.3933 26.0713 68.2327 63.1405 89.0612 107.4425 3.4273 7.226 4.8553 13.8221 7.9984 21.3632 6.0074 15.3976 13.4247 31.1031 19.4108 46.188 5.9987 14.7672 11.7093 29.8564 20.2688 42.1056 4.2849 6.6003 21.4109 10.048 29.1117 13.5048 5.713 2.8195 14.556 5.3516 19.7091 8.8035 9.6999 6.5962 19.402 14.1374 28.5396 21.3591 4.5591 3.7604 18.8411 11.6209 19.6883 17.8862zM800.3314 77.6837c-3.9417-.0385-7.8787.4895-11.6991 1.5707v.6325h.5688c2.2775 5.0275 6.2765 8.4863 9.1311 12.886l6.5715 15.0823.5689-.6325c3.9985-3.1415 5.9987-8.1711 5.9987-15.7012-1.7139-2.2007-1.9991-4.4039-3.4268-6.6003-1.7139-3.1416-5.4259-4.7149-7.7131-7.2239z" fill="#00678c"/><path d="M495.3808 585.3469h107.3416c12.5567 0 24.5536-2.8153 34.2535-7.8537 16.2713-8.1668 23.982-19.149 23.982-33.6057v-30.1579c0-11.6147-8.8441-22.6236-26.5409-30.1516-9.131-3.7671-20.5546-5.9768-31.6924-5.9768h-45.1089c-15.128 0-22.2668-5.0321-24.2681-16.0142-.2838-1.2514-.2838-2.5159-.2838-3.7672v-18.537c0-.9518 0-2.1964.2838-3.454 1.9991-8.48 5.9981-10.6832 19.1972-12.2472h109.9026V396.239H557.962c-15.1291 0-23.1249.9518-30.2659 3.4614-21.9843 7.5344-31.6853 19.4752-31.6853 40.5144v23.8948c0 18.5165 18.8412 34.2382 50.8113 38.0053 3.4256.3131 7.1387.3131 10.8515.3131h38.5389c1.428 0 2.8463 0 3.9869.3195 11.7111 1.2577 16.8519 3.4541 20.2688 8.1532 2.2851 2.5158 2.8659 4.719 2.8659 7.548v23.8681c0 2.8216-1.7215 6.6092-5.1397 9.7375-3.4271 3.1347-8.8657 5.338-15.9959 5.6574-1.428 0-2.273.3131-3.7131.3131H495.3808zm397.9482-47.4298c0 27.9546 19.1961 43.6559 57.3997 46.811 3.7114.3131 7.1296.6188 10.8427.6188h97.0684v-27.3221h-97.9156c-21.7164 0-29.9882-5.9705-29.9882-20.414V396.239h-37.4695v141.6849zm-208.6849 1.2445v-97.3761c0-24.8199 15.984-39.9091 47.1167-44.6082 3.418-.3194 6.8437-.6389 9.9759-.6389h70.8004c3.7042 0 6.8561.3195 10.5692.6389 31.1115 4.6991 46.8097 19.7815 46.8097 44.6082v97.3761c0 20.1072-6.558 30.7904-21.9843 38.0253l36.5304 36.4278h-43.0982l-29.685-29.5191-29.9883 1.8839h-39.9658c-7.3216-.0408-14.6075-1.0947-21.6969-3.1348-23.6743-7.2353-35.3838-21.0527-35.3838-43.6831zm40.2495-2.1828c0 1.2577.6424 2.5022.8668 4.0866 1.9904 11.3016 11.6903 17.5914 26.5408 17.5914h33.6938L755.1618 527.86h43.1056l27.1126 27.0296c5.1532-3.1483 8.2843-7.548 9.426-13.2053.286-1.2513.286-2.8154.286-4.0803v-93.3094c0-1.2514 0-2.5022-.286-3.7673-1.9991-10.6758-11.6986-16.6394-26.2555-16.6394h-56.2471c-16.5557 0-27.4076 7.8537-27.4076 20.4067z" fill="#ce8b2c"/></svg>